<mxfile host="app.diagrams.net" modified="2024-02-25T20:53:56.505Z" agent="Mozilla/5.0 (X11; Linux x86_64; rv:123.0) Gecko/20100101 Firefox/123.0" version="23.1.6" etag="aERIdHpIeN-LrUUj0kji" type="github">
  <diagram name="Page-1" id="Epw4YKt_49iH0xRDviip">
    <mxGraphModel>
      <root>
        <mxCell id="0" />
        <mxCell id="1" parent="0" />
      </root>
    </mxGraphModel>
  </diagram>
</mxfile>
